<svg xmlns="http://www.w3.org/2000/svg" xmlns:xlink="http://www.w3.org/1999/xlink" version="1.1" x="0px" y="0px" viewBox="0 0 100 125" style="enable-background:new 0 0 100 100;" xml:space="preserve">
  <path d="M94.27,28.77L71.23,5.73c-1.53-1.53-4.02-1.53-5.55,0L43.22,28.19c-0.12,0.12-0.21,0.26-0.26,0.42l-6.21,17.46  c-1.42-0.37-2.98-0.02-4.09,1.09c-0.8,0.8-1.25,1.87-1.25,3.02s0.44,2.21,1.25,3.02l1.67,1.67L7.5,78.87  c-1.81,1.62-2.85,3.91-2.92,6.43c-0.07,2.7,0.97,5.33,2.87,7.23c1.84,1.84,4.36,2.88,6.97,2.88c0.09,0,0.18,0,0.27,0  c2.52-0.07,4.81-1.11,6.43-2.92l24.02-26.81l1.67,1.67c0.83,0.83,1.92,1.25,3.02,1.25s2.18-0.42,3.02-1.25  c1.11-1.11,1.46-2.68,1.09-4.09l17.46-6.21c0.16-0.06,0.30-0.15,0.42-0.26l22.46-22.46C95.8,32.79,95.8,30.3,94.27,28.77z   M44.47,31.03l24.5,24.5L52.8,61.28L38.72,47.2L44.47,31.03z M19.45,91c-1.21,1.35-2.92,2.12-4.82,2.17  c-2.08,0.06-4.12-0.75-5.58-2.22c-1.47-1.47-2.28-3.5-2.22-5.59c0.05-1.9,0.82-3.61,2.17-4.82l26.9-24.1l7.65,7.65L19.45,91z   M51.25,65.76c-0.79,0.79-2.07,0.79-2.86,0L34.24,51.61c-0.38-0.38-0.59-0.89-0.59-1.43s0.21-1.05,0.59-1.43  c0.39-0.39,0.91-0.59,1.43-0.59c0.52,0,1.03,0.20,1.43,0.59l14.16,14.16C52.04,63.69,52.04,64.98,51.25,65.76z M92.68,32.74  L71.02,54.40L45.60,28.98L67.26,7.32C67.58,7,68,6.83,68.45,6.83S69.33,7,69.64,7.32l23.04,23.04C93.34,31.01,93.34,32.08,92.68,32.74  z M17.84,82.16c-0.77-0.77-1.79-1.19-2.88-1.19s-2.11,0.42-2.88,1.19c-0.77,0.77-1.19,1.79-1.19,2.88s0.42,2.11,1.19,2.88  c0.77,0.77,1.79,1.19,2.88,1.19c1.09,0,2.11-0.42,2.88-1.19c-0.77-0.77-1.19-1.79-1.19-2.88C19.03,83.95,18.61,82.93,17.84,82.16  C17.84,82.16,17.84,82.16,17.84,82.16z M16.26,86.32c-0.34,0.34-0.80,0.53-1.29,0.53s-0.95-0.19-1.29-0.53  c-0.34-0.34-0.53-0.80-0.53-1.29c0-0.49,0.19-0.95,0.53-1.29c0.34-0.34,0.80-0.53,1.29-0.53s0.95,0.19,1.29,0.53c0,0,0,0,0,0  c0.34,0.34,0.53,0.80,0.53,1.29C16.79,85.52,16.60,85.98,16.26,86.32z M68,13.39c0.44,0.44,0.44,1.15,0,1.59L54.05,28.93  c-0.22,0.22-0.51,0.33-0.79,0.33c-0.29,0-0.57-0.11-0.79-0.33c-0.44-0.44-0.44-1.15,0-1.59l13.95-13.95  C66.85,12.95,67.56,12.95,68,13.39z" fill="#FFFFFF" stroke="#fff" stroke-width="2" />
</svg>
